<svg width="456" height="95" viewBox="0 0 456 95" fill="none" xmlns="http://www.w3.org/2000/svg">
<path d="M154.763 62.1327V28.2354H161.252L175.683 52.1572H172.245L186.433 28.2354H192.874L192.971 62.1327H185.61L185.562 39.5183H186.917L175.586 58.5493H172.051L160.478 39.5183H162.124V62.1327H154.763ZM196.558 62.1327L211.666 28.2354H219.414L234.571 62.1327H226.339L213.942 32.2062H217.041L204.596 62.1327H196.558ZM204.112 54.869L206.194 48.9128H223.627L225.758 54.869H204.112ZM238.088 62.1327V28.2354H252.761C255.795 28.2354 258.41 28.7358 260.606 29.7365C262.801 30.705 264.496 32.1094 265.69 33.9495C266.885 35.7896 267.482 37.9849 267.482 40.5353C267.482 43.0534 266.885 45.2325 265.69 47.0726C264.496 48.8805 262.801 50.2686 260.606 51.2371C258.41 52.2056 255.795 52.6899 252.761 52.6899H242.446L245.933 49.2517V62.1327H238.088ZM259.637 62.1327L251.163 49.8328H259.54L268.111 62.1327H259.637ZM245.933 50.1234L242.446 46.4431H252.325C254.746 46.4431 256.554 45.9266 257.749 44.8935C258.943 43.8282 259.54 42.3754 259.54 40.5353C259.54 38.6628 258.943 37.2101 257.749 36.177C256.554 35.144 254.746 34.6274 252.325 34.6274H242.446L245.933 30.8987V50.1234ZM280.719 54.3848L280.283 45.3293L296.505 28.2354H305.222L290.598 43.9734L286.239 48.6222L280.719 54.3848ZM273.697 62.1327V28.2354H281.494V62.1327H273.697ZM296.893 62.1327L284.835 47.3632L289.968 41.7943L306.045 62.1327H296.893ZM316.758 41.8912H333.077V47.9927H316.758V41.8912ZM317.339 55.8375H335.789V62.1327H309.543V28.2354H335.16V34.5306H317.339V55.8375ZM342.031 62.1327V28.2354H357.43C361.11 28.2354 364.355 28.9456 367.164 30.3661C369.972 31.7542 372.167 33.7074 373.749 36.2255C375.331 38.7436 376.122 41.7297 376.122 45.184C376.122 48.6061 375.331 51.5923 373.749 54.1426C372.167 56.6607 369.972 58.63 367.164 60.0505C364.355 61.4386 361.11 62.1327 357.43 62.1327H342.031ZM349.876 55.6922H357.043C359.303 55.6922 361.256 55.2725 362.902 54.4332C364.581 53.5615 365.872 52.3348 366.776 50.7529C367.712 49.171 368.18 47.3147 368.18 45.184C368.18 43.0211 367.712 41.1648 366.776 39.6152C365.872 38.0333 364.581 36.8227 362.902 35.9833C361.256 35.1117 359.303 34.6759 357.043 34.6759H349.876V55.6922ZM389.254 41.8912H405.573V47.9927H389.254V41.8912ZM389.835 55.8375H408.285V62.1327H382.038V28.2354H407.655V34.5306H389.835V55.8375ZM421.548 62.1327V34.6274H410.701V28.2354H440.24V34.6274H429.393V62.1327H421.548Z" fill="black"/>
<path d="M59.6079 94.8319C57.9357 94.8319 56.535 94.3261 55.4058 93.3145C54.2727 92.3065 53.7061 91.0561 53.7061 89.5634C53.7061 88.9488 53.8536 88.3113 54.1487 87.651C54.4438 86.9942 54.8865 86.4024 55.4766 85.8755L82.7723 61.509L78.4935 57.6894L51.3454 82.0559C50.7552 82.5827 50.1159 82.9779 49.4273 83.2413C48.7388 83.5047 48.0011 83.6364 47.2142 83.6364C45.542 83.6364 44.1413 83.1307 43.0121 82.1191C41.879 81.1111 41.3124 79.8607 41.3124 78.368C41.3124 77.4899 41.4599 76.7646 41.755 76.1921C42.0501 75.6231 42.4436 75.1191 42.9354 74.6801L70.2311 50.3136L66.0998 46.6257L38.8041 70.8605C38.214 71.3873 37.5746 71.7824 36.8861 72.0459C36.1975 72.3093 35.4106 72.441 34.5254 72.441C32.9515 72.441 31.5745 71.9142 30.3941 70.8605C29.2138 69.8068 28.6236 68.5775 28.6236 67.1726C28.6236 66.4701 28.7711 65.8116 29.0662 65.1969C29.3613 64.5823 29.8039 64.0115 30.3941 63.4847L57.6898 39.1181L53.411 35.4302L26.2629 59.7968C25.7711 60.2358 25.1809 60.587 24.4923 60.8504C23.8038 61.1139 22.9677 61.2456 21.9841 61.2456C20.3119 61.2456 18.9112 60.7398 17.782 59.7283C16.6489 58.7202 16.0823 57.4699 16.0823 55.9771C16.0823 55.2747 16.2299 54.6161 16.525 54.0015C16.82 53.3868 17.2627 52.8161 17.8529 52.2892L50.7552 22.9177L72.8869 42.806C73.9688 43.7719 75.2476 44.5394 76.723 45.1084C78.1984 45.6809 79.6739 45.9671 81.1493 45.9671C84.2969 45.9671 87.0511 44.9784 89.4118 43.001C91.7725 41.0271 92.9529 38.5035 92.9529 35.4302C92.9529 34.2009 92.707 32.9277 92.2151 31.6106C91.7233 30.2935 90.8381 29.0642 89.5593 27.9227L63.1489 4.34646C64.8211 2.94154 66.69 1.86503 68.7556 1.11691C70.8212 0.372302 72.8869 0 74.9525 0C77.5099 0 79.8706 0.372302 82.0346 1.11691C84.1986 1.86503 86.1658 3.02935 87.9364 4.60988L112.871 27.0007C114.642 28.5813 115.946 30.3374 116.784 32.2692C117.618 34.2009 118.035 36.44 118.035 38.9864C118.035 40.7426 117.593 42.5198 116.707 44.3181C115.822 46.1199 114.544 47.7672 112.871 49.2599L63.7391 93.2513C62.9522 93.9538 62.2637 94.3928 61.6735 94.5684C61.0833 94.744 60.3948 94.8319 59.6079 94.8319ZM9.0002 52.6844L5.16405 49.2599C3.49188 47.855 2.21316 46.1866 1.3279 44.2549C0.442632 42.3231 0 40.3035 0 38.1962C0 35.9132 0.491814 33.8058 1.47544 31.874C2.45907 29.9423 3.68861 28.3178 5.16405 27.0007L30.099 4.60988C31.6728 3.20497 33.5417 2.08454 35.7057 1.24862C37.8697 0.416206 39.9845 0 42.0501 0C44.7059 0 47.0666 0.330155 49.1322 0.990466C51.1978 1.64726 53.2143 2.85374 55.1815 4.60988L85.4281 31.6106C86.0183 32.1375 86.4609 32.7082 86.756 33.3229C87.0511 33.9375 87.1986 34.5961 87.1986 35.2985C87.1986 36.7034 86.6085 37.9327 85.4281 38.9864C84.2478 40.0401 82.8707 40.567 81.2969 40.567C80.4116 40.567 79.6739 40.4563 79.0837 40.2351C78.4935 40.0173 77.8542 39.6011 77.1656 38.9864L50.6077 15.5419L9.0002 52.6844Z" fill="#3C655D"/>
</svg>
