<svg width="253" height="203" viewBox="0 0 253 203" fill="none" xmlns="http://www.w3.org/2000/svg">
<path id="Vector" d="M127.765 203C124.181 203 121.179 201.917 118.758 199.752C116.329 197.594 115.115 194.918 115.115 191.722C115.115 190.406 115.431 189.042 116.064 187.628C116.696 186.222 117.645 184.956 118.91 183.828L177.416 131.668L168.245 123.492L110.055 175.651C108.79 176.779 107.42 177.625 105.944 178.189C104.468 178.753 102.887 179.035 101.2 179.035C97.6158 179.035 94.6136 177.952 92.1932 175.787C89.7644 173.629 88.55 170.952 88.55 167.757C88.55 165.877 88.8662 164.325 89.4987 163.099C90.1312 161.881 90.9746 160.802 92.0287 159.862L150.535 107.703L141.68 99.8083L83.1737 151.686C81.9087 152.814 80.5383 153.66 79.0625 154.224C77.5867 154.787 75.9 155.069 74.0025 155.069C70.6292 155.069 67.6775 153.942 65.1475 151.686C62.6175 149.431 61.3525 146.799 61.3525 143.792C61.3525 142.288 61.6688 140.878 62.3013 139.562C62.9338 138.247 63.8825 137.025 65.1475 135.897L123.654 83.7375L114.482 75.8431L56.2925 128.003C55.2383 128.943 53.9733 129.694 52.4975 130.258C51.0217 130.822 49.2296 131.104 47.1212 131.104C43.5371 131.104 40.5348 130.021 38.1144 127.856C35.6856 125.698 34.4712 123.022 34.4712 119.826C34.4712 118.323 34.7875 116.913 35.42 115.597C36.0525 114.281 37.0013 113.06 38.2663 111.932L108.79 49.0583L156.227 91.6319C158.547 93.6995 161.287 95.3423 164.45 96.5603C167.612 97.7859 170.775 98.3986 173.938 98.3986C180.684 98.3986 186.587 96.2821 191.647 92.0492C196.707 87.8238 199.237 82.4218 199.237 75.8431C199.237 73.2116 198.71 70.4861 197.656 67.6667C196.602 64.8472 194.705 62.2157 191.964 59.7722L135.355 9.30417C138.939 6.29676 142.945 3.99233 147.372 2.39089C151.8 0.796962 156.227 0 160.655 0C166.137 0 171.197 0.796962 175.835 2.39089C180.473 3.99233 184.69 6.48472 188.485 9.86806L241.931 57.7986C245.726 61.1819 248.522 64.9412 250.318 69.0764C252.106 73.2116 253 78.0046 253 83.4556C253 87.2148 252.051 91.0192 250.154 94.8687C248.256 98.7257 245.515 102.252 241.931 105.447L136.62 199.617C134.933 201.12 133.457 202.06 132.192 202.436C130.927 202.812 129.452 203 127.765 203ZM19.2913 112.778L11.0687 105.447C7.48458 102.44 4.74375 98.8685 2.84625 94.7333C0.948749 90.5981 0 86.275 0 81.7639C0 76.8769 1.05417 72.3657 3.1625 68.2306C5.27083 64.0954 7.90625 60.6181 11.0687 57.7986L64.515 9.86806C67.8883 6.86065 71.8942 4.46224 76.5325 2.67283C81.1708 0.890944 85.7038 0 90.1312 0C95.8237 0 100.884 0.70674 105.311 2.12022C109.739 3.52618 114.061 6.1088 118.278 9.86806L183.109 67.6667C184.374 68.7944 185.323 70.0162 185.955 71.3319C186.588 72.6477 186.904 74.0574 186.904 75.5611C186.904 78.5685 185.639 81.2 183.109 83.4556C180.579 85.7111 177.627 86.8389 174.254 86.8389C172.356 86.8389 170.775 86.6021 169.51 86.1284C168.245 85.6622 166.875 84.7713 165.399 83.4556L108.474 33.2694L19.2913 112.778Z" fill="#3C655D"/>
</svg>
